<svg xmlns="http://www.w3.org/2000/svg" width="56" height="56" viewBox="0 0 56 56"><g><g><g><path fill="#e60004" d="M0 0h56v56H0z"/></g><g><path fill="#fff" d="M14.951 20.734c0 .23-.039.459-.113.677a1.817 1.817 0 0 1-.795.993c-.202.117-.427.19-.66.214-.116.014-.229.031-.324.031h-2.257v-3.828h1.447c.205 0 .393.006.564.017l.547.037c.23.032.45.111.65.231.191.115.361.263.501.437.137.17.247.36.325.565.076.2.115.412.115.626zM6.78 30.683a.423.423 0 0 0 .124.339.482.482 0 0 0 .333.11h3.103c.322 0 .483-.15.483-.449v-4.716h1.692l2.539 4.778a.454.454 0 0 0 .18.282c.087.07.194.111.305.116h3.628c.101.002.2-.03.282-.09a.305.305 0 0 0 .113-.254.745.745 0 0 0-.119-.347 5.823 5.823 0 0 1-.186-.344l-2.688-5.061c.376-.218.725-.48 1.04-.779a5.148 5.148 0 0 0 1.36-2.217c.13-.44.194-.896.192-1.354a4.891 4.891 0 0 0-.4-1.974 5.14 5.14 0 0 0-1.103-1.617 5.32 5.32 0 0 0-1.642-1.092 5.078 5.078 0 0 0-2.017-.403h-6.77a.434.434 0 0 0-.344.133.51.51 0 0 0-.113.35z"/></g><g><path fill="#fff" d="M21.471 16.093a.502.502 0 0 1 .122-.35.44.44 0 0 1 .341-.132h10.38a.477.477 0 0 1 .36.135c.085.103.13.233.123.367v2.592a.564.564 0 0 1-.124.342.437.437 0 0 1-.367.16h-6.77v2.584h5.23a.53.53 0 0 1 .327.096.35.35 0 0 1 .13.313v2.257a.434.434 0 0 1-.448.418H25.53v2.665h7.026a.42.42 0 0 1 .469.48v2.637a.454.454 0 0 1-.144.344c-.1.091-.232.14-.367.136h-10.58a.485.485 0 0 1-.337-.11.423.423 0 0 1-.127-.339z"/></g><g><path fill="#fff" d="M41.058 19.35a4.398 4.398 0 0 1 1.616.296 3.966 3.966 0 0 1 2.218 2.11 3.93 3.93 0 0 1 .33 1.62c.005.521-.09 1.04-.283 1.525a3.802 3.802 0 0 1-.795 1.216c-.34.353-.743.64-1.188.846-.46.215-.957.344-1.464.381-.15.014-.307.02-.46.037-.152.017-.307.017-.47.017h-.878v-8.04zm7.904 1.935a7.842 7.842 0 0 0-.801-1.87 7.47 7.47 0 0 0-1.253-1.569 8.206 8.206 0 0 0-1.613-1.204 7.955 7.955 0 0 0-1.913-.759 8.21 8.21 0 0 0-2.115-.282H36.11a.463.463 0 0 0-.36.138.519.519 0 0 0-.12.356V30.7c0 .184.049.303.144.356a.66.66 0 0 0 .336.084h5.168c.716.001 1.43-.088 2.124-.265a8.116 8.116 0 0 0 1.904-.762 7.726 7.726 0 0 0 2.86-2.753 7.574 7.574 0 0 0 1.086-3.969 7.49 7.49 0 0 0-.29-2.107z"/></g><g><path fill="#fff" d="M6.751 33.238a.212.212 0 0 1 .06-.158.228.228 0 0 1 .169-.06h5.678c.057 0 .113.019.158.054.047.04.072.102.068.164v.987a.31.31 0 0 1 0 .073.209.209 0 0 1-.023.088l-3.554 4.223h3.357a.234.234 0 0 1 .158.053.206.206 0 0 1 .062.167v1.224a.282.282 0 0 1-.06.164.2.2 0 0 1-.16.076H6.997a.217.217 0 0 1-.167-.065.223.223 0 0 1-.062-.175v-1.052a.237.237 0 0 1 .031-.127l3.532-4.18H6.98a.24.24 0 0 1-.17-.057.243.243 0 0 1-.059-.183z"/></g><g><path fill="#fff" d="M15.667 36.667a2.127 2.127 0 0 1 .133-.77 1.89 1.89 0 0 1 .39-.607 1.822 1.822 0 0 1 2.07-.414c.222.098.422.239.59.414.165.18.296.39.386.618a2.192 2.192 0 0 1 0 1.518c-.09.226-.22.434-.387.612a1.73 1.73 0 0 1-.59.409 1.89 1.89 0 0 1-1.486 0 1.836 1.836 0 0 1-.97-1.021 2.107 2.107 0 0 1-.136-.759zm-1.887 0c0 .33.043.66.13.979.173.622.504 1.189.962 1.644a3.73 3.73 0 0 0 3.622.962c.314-.084.615-.211.894-.378a3.93 3.93 0 0 0 .762-.584c.225-.226.42-.479.584-.753a3.726 3.726 0 0 0 .375-2.866 3.72 3.72 0 0 0-1.72-2.243 3.771 3.771 0 0 0-.895-.377 3.794 3.794 0 0 0-1.975 0 3.904 3.904 0 0 0-.891.378c-.278.16-.532.358-.756.586a3.65 3.65 0 0 0-.584.76c-.164.281-.29.582-.378.896a3.72 3.72 0 0 0-.13.996z"/></g><g><path fill="#fff" d="M22.462 33.237a.212.212 0 0 1 .22-.217h1.444a.24.24 0 0 1 .158.06c.046.039.072.097.07.157v5.32h2.69a.212.212 0 0 1 .216.22v1.281c0 .057-.021.11-.059.153a.186.186 0 0 1-.158.07h-4.367a.189.189 0 0 1-.214-.214z"/></g><g><path fill="#fff" d="M29.815 35.91c.088-.227.217-.436.381-.616.167-.174.367-.315.587-.414a1.9 1.9 0 0 1 1.49 0c.221.098.422.238.589.414a1.969 1.969 0 0 1 .519 1.373c.002.258-.044.515-.135.757a1.918 1.918 0 0 1-.384.61 1.73 1.73 0 0 1-.59.408c-.235.103-.49.155-.747.152a1.827 1.827 0 0 1-1.329-.563 1.912 1.912 0 0 1-.38-.61 2.12 2.12 0 0 1 0-1.51zm-2.025.759c0 .334.045.666.135.987a3.755 3.755 0 0 0 1.712 2.22c.28.166.581.293.895.378a3.794 3.794 0 0 0 1.989 0c.313-.085.614-.212.894-.378a3.783 3.783 0 0 0 1.346-1.337c.161-.28.288-.58.375-.891a3.794 3.794 0 0 0 0-1.975 3.668 3.668 0 0 0-.962-1.656 3.715 3.715 0 0 0-1.653-.964 3.794 3.794 0 0 0-1.99 0 3.698 3.698 0 0 0-1.65.965 3.772 3.772 0 0 0-1.091 2.651z"/></g><g><path fill="#fff" d="M35.635 33.237a.195.195 0 0 1 .065-.158.243.243 0 0 1 .163-.059h5.27c.056 0 .11.019.155.054.049.04.078.1.079.163v1.219c-.001.06-.023.12-.062.166a.2.2 0 0 1-.172.082H39.44v5.36c0 .059-.023.116-.065.158a.209.209 0 0 1-.166.07H37.77a.237.237 0 0 1-.155-.065.206.206 0 0 1-.073-.163v-5.371h-1.693a.245.245 0 0 1-.164-.062.251.251 0 0 1-.064-.186z"/></g><g><path fill="#fff" d="M43.657 36.664c0-.259.047-.515.138-.757.088-.228.218-.437.384-.616.166-.174.364-.315.584-.414a1.909 1.909 0 0 1 1.492 0c.221.099.42.24.587.414.167.179.297.388.384.616.09.242.136.499.135.757.002.258-.044.515-.135.757a1.825 1.825 0 0 1-.384.61 1.746 1.746 0 0 1-.587.408 1.909 1.909 0 0 1-1.492 0 1.763 1.763 0 0 1-.584-.408 1.87 1.87 0 0 1-.384-.61 2.097 2.097 0 0 1-.138-.757zm-1.887.005c-.001.333.043.665.13.987.087.312.213.612.375.892a3.812 3.812 0 0 0 1.343 1.337c.279.165.578.292.891.378a3.794 3.794 0 0 0 1.989 0 3.71 3.71 0 0 0 .897-.378c.276-.168.53-.369.759-.598a3.718 3.718 0 0 0 .96-3.62 3.75 3.75 0 0 0-1.718-2.243 3.794 3.794 0 0 0-2.883-.372 3.85 3.85 0 0 0-.892.379 3.625 3.625 0 0 0-.756.586 3.76 3.76 0 0 0-.587.76 3.949 3.949 0 0 0-.375.896c-.09.325-.134.66-.133.996z"/></g></g></g></svg>