<svg xmlns="http://www.w3.org/2000/svg" width="48" height="48" viewBox="0 0 48 48"><g><g><g><path fill="#e60004" d="M0 0h48v48H0z"/></g><g><path fill="#fff" d="M12.799 17.77c0 .197-.033.393-.096.58a1.554 1.554 0 0 1-.679.848 1.41 1.41 0 0 1-.563.184c-.099.012-.195.026-.277.026H9.26v-3.273h1.235c.174 0 .335.004.48.014l.468.031c.196.028.384.095.553.198.164.098.31.225.429.374.117.145.21.308.276.483.065.17.099.352.099.535zM5.808 26.3c-.01.107.03.214.106.29.08.066.182.1.286.094h2.66c.275 0 .413-.128.413-.384v-4.043h1.45l2.177 4.096a.39.39 0 0 0 .154.242.44.44 0 0 0 .262.099h3.109a.39.39 0 0 0 .242-.078.261.261 0 0 0 .096-.217.638.638 0 0 0-.101-.298 4.996 4.996 0 0 1-.16-.295l-2.304-4.337a4.77 4.77 0 0 0 .892-.668 4.413 4.413 0 0 0 1.166-1.9c.11-.377.166-.768.164-1.16a4.193 4.193 0 0 0-.343-1.693 4.406 4.406 0 0 0-.946-1.386 4.56 4.56 0 0 0-1.407-.935 4.352 4.352 0 0 0-1.729-.346H6.192a.372.372 0 0 0-.295.114.438.438 0 0 0-.096.3z"/></g><g><path fill="#fff" d="M18.411 13.794a.43.43 0 0 1 .104-.3.377.377 0 0 1 .293-.113h8.898a.409.409 0 0 1 .307.116c.073.087.111.2.106.314v2.222a.484.484 0 0 1-.106.293.375.375 0 0 1-.315.137h-5.803v2.215h4.483c.1-.004.199.025.28.082a.3.3 0 0 1 .112.269v1.934a.372.372 0 0 1-.385.358h-4.494v2.285h6.023a.36.36 0 0 1 .4.411v2.26a.39.39 0 0 1-.122.296.447.447 0 0 1-.315.116h-9.07a.416.416 0 0 1-.287-.095.363.363 0 0 1-.109-.29z"/></g><g><path fill="#fff" d="M35.189 16.584c.473-.003.942.083 1.384.254.849.324 1.533.976 1.899 1.809.191.437.287.91.282 1.388.005.447-.077.891-.241 1.308a3.26 3.26 0 0 1-.682 1.042 3.428 3.428 0 0 1-1.017.725c-.394.184-.82.295-1.253.327-.128.012-.264.016-.394.031-.13.014-.264.014-.404.014h-.751v-6.89zm6.778 1.659a6.722 6.722 0 0 0-.686-1.603 6.403 6.403 0 0 0-1.074-1.345 7.034 7.034 0 0 0-1.383-1.032 6.818 6.818 0 0 0-1.64-.65 7.036 7.036 0 0 0-1.813-.242h-4.42a.397.397 0 0 0-.309.118.445.445 0 0 0-.102.305v12.52c0 .158.042.26.124.304.088.05.187.075.288.073h4.43c.613 0 1.225-.076 1.82-.227a6.956 6.956 0 0 0 1.632-.653 6.623 6.623 0 0 0 2.452-2.36 6.492 6.492 0 0 0 .93-3.402 6.419 6.419 0 0 0-.249-1.806z"/></g><g><path fill="#fff" d="M5.791 28.497a.181.181 0 0 1 .05-.136.196.196 0 0 1 .146-.05h4.867c.05-.001.097.015.135.045a.17.17 0 0 1 .058.14v.847a.266.266 0 0 1 0 .063.179.179 0 0 1-.019.075L7.982 33.1h2.877a.2.2 0 0 1 .135.045c.039.037.058.09.053.143v1.05c-.001.05-.019.1-.05.14a.172.172 0 0 1-.138.065H6a.186.186 0 0 1-.142-.056.191.191 0 0 1-.054-.15v-.902a.203.203 0 0 1 .027-.108l3.027-3.584H5.987a.205.205 0 0 1-.145-.048.208.208 0 0 1-.051-.157z"/></g><g><path fill="#fff" d="M13.428 31.432a1.823 1.823 0 0 1 .113-.66c.077-.193.19-.37.334-.52a1.562 1.562 0 0 1 1.775-.356 1.567 1.567 0 0 1 .836.885 1.879 1.879 0 0 1 0 1.301 1.656 1.656 0 0 1-.33.525c-.143.15-.315.27-.506.35a1.62 1.62 0 0 1-1.275 0 1.574 1.574 0 0 1-.832-.875 1.806 1.806 0 0 1-.115-.65zm-1.618 0c0 .283.037.565.111.839.148.533.432 1.019.825 1.41a3.197 3.197 0 0 0 3.104.824c.27-.073.527-.182.767-.324.237-.14.456-.308.653-.5a3.194 3.194 0 0 0 .5-3.871 3.233 3.233 0 0 0-1.92-1.477 3.252 3.252 0 0 0-1.692-.001 3.346 3.346 0 0 0-.764.324 3.044 3.044 0 0 0-.648.503 3.129 3.129 0 0 0-.5.65c-.141.242-.25.5-.325.77a3.19 3.19 0 0 0-.11.853z"/></g><g><path fill="#fff" d="M19.252 28.486a.181.181 0 0 1 .188-.186h1.238c.05 0 .098.018.136.05.039.035.061.084.06.136v4.56h2.304a.181.181 0 0 1 .187.19v1.097a.198.198 0 0 1-.051.13.16.16 0 0 1-.136.06h-3.743a.162.162 0 0 1-.183-.183z"/></g><g><path fill="#fff" d="M25.556 30.785c.075-.195.186-.374.326-.53.144-.149.314-.27.503-.355a1.625 1.625 0 0 1 1.277 0c.19.084.362.205.505.356a1.692 1.692 0 0 1 .445 1.18c.002.222-.037.442-.116.65a1.65 1.65 0 0 1-.329.525c-.142.15-.314.27-.505.35a1.55 1.55 0 0 1-.64.131 1.564 1.564 0 0 1-1.14-.483 1.644 1.644 0 0 1-.326-.525 1.825 1.825 0 0 1 0-1.298zm-1.736.648c0 .286.039.571.116.847a3.218 3.218 0 0 0 1.468 1.903c.24.141.497.25.766.324a3.252 3.252 0 0 0 1.705 0c.269-.074.526-.183.766-.324a3.243 3.243 0 0 0 1.153-1.146c.14-.24.248-.497.322-.765.15-.554.15-1.138 0-1.692a3.143 3.143 0 0 0-.825-1.42 3.185 3.185 0 0 0-1.416-.826 3.252 3.252 0 0 0-1.705 0 3.17 3.17 0 0 0-1.414.827 3.233 3.233 0 0 0-.936 2.272z"/></g><g><path fill="#fff" d="M30.543 28.496a.167.167 0 0 1 .055-.135.208.208 0 0 1 .14-.051h4.517a.21.21 0 0 1 .133.046.184.184 0 0 1 .068.14v1.045c-.001.052-.02.102-.053.142a.172.172 0 0 1-.148.07h-1.45v4.595c0 .05-.02.099-.056.135a.179.179 0 0 1-.143.06h-1.233a.203.203 0 0 1-.133-.055.176.176 0 0 1-.063-.14v-4.604h-1.45a.21.21 0 0 1-.14-.053.215.215 0 0 1-.056-.16z"/></g><g><path fill="#fff" d="M37.418 31.433c0-.222.04-.442.118-.65.075-.196.187-.375.329-.53a1.6 1.6 0 0 1 .5-.355c.409-.174.87-.174 1.28 0 .189.084.36.205.502.355.143.154.255.334.33.53.077.208.117.428.115.65.002.223-.037.443-.116.65a1.57 1.57 0 0 1-.329.526c-.141.15-.312.27-.503.35-.408.174-.87.174-1.279 0-.189-.081-.359-.2-.5-.35a1.608 1.608 0 0 1-.329-.525 1.806 1.806 0 0 1-.118-.65zm-1.618 0c0 .286.037.57.111.847.075.267.183.524.322.764a3.267 3.267 0 0 0 1.15 1.146c.24.142.497.25.765.324a3.252 3.252 0 0 0 1.704 0 3.18 3.18 0 0 0 .77-.324c.236-.144.454-.316.65-.513a3.187 3.187 0 0 0 .822-3.102 3.214 3.214 0 0 0-1.472-1.922 3.252 3.252 0 0 0-2.471-.32 3.3 3.3 0 0 0-.765.325 3.107 3.107 0 0 0-.648.503 3.223 3.223 0 0 0-.503.65c-.138.242-.246.5-.321.769a3.189 3.189 0 0 0-.114.853z"/></g></g></g></svg>